<svg id="svg" version="1.1" xmlns="http://www.w3.org/2000/svg" xmlns:xlink="http://www.w3.org/1999/xlink" width="400" height="400" viewBox="0, 0, 400,400"><g id="svgg"><path id="path0" d="M96.560 128.971 C 94.713 129.775,94.800 126.875,94.800 187.653 C 94.800 251.344,94.566 246.548,97.697 246.991 C 102.645 247.692,303.566 247.006,304.286 246.286 C 304.965 245.607,305.000 242.722,305.000 187.686 L 305.000 129.800 303.600 129.101 C 301.705 128.154,98.728 128.027,96.560 128.971 M127.986 140.426 C 134.674 141.511,136.001 144.470,135.996 158.275 C 135.990 174.227,134.409 176.400,122.810 176.400 C 115.167 176.400,112.633 175.276,110.445 170.916 C 109.252 168.538,109.136 148.063,110.303 145.885 C 113.157 140.560,118.551 138.895,127.986 140.426 M196.899 140.799 C 201.878 142.254,203.000 145.490,203.000 158.400 C 203.000 169.949,202.868 170.678,200.255 173.534 C 196.604 177.525,183.362 177.663,179.399 173.752 C 176.610 170.999,176.600 170.941,176.600 158.200 L 176.600 146.600 177.892 144.753 C 179.689 142.185,181.567 140.869,184.072 140.420 C 186.666 139.955,194.839 140.197,196.899 140.799 M232.896 140.642 C 234.473 141.001,237.261 143.605,238.304 145.693 C 239.760 148.609,239.681 167.832,238.200 170.962 C 236.158 175.279,233.644 176.400,226.000 176.400 C 218.370 176.400,215.628 175.092,213.586 170.476 C 212.378 167.744,212.393 148.621,213.606 145.880 C 214.765 143.260,217.582 140.904,219.934 140.588 C 220.960 140.450,221.980 140.263,222.200 140.172 C 222.746 139.946,231.535 140.332,232.896 140.642 M269.241 140.908 C 274.219 142.988,274.800 144.796,274.800 158.200 C 274.800 170.568,274.782 170.677,272.238 173.526 C 268.613 177.587,255.977 177.698,251.382 173.710 C 248.892 171.547,248.600 169.921,248.600 158.200 C 248.600 145.235,248.886 144.210,253.275 141.423 C 255.606 139.943,266.119 139.604,269.241 140.908 M150.618 141.382 L 151.600 142.364 151.600 158.260 L 151.600 174.156 150.525 175.278 C 149.160 176.703,147.655 176.736,146.370 175.368 L 145.400 174.336 145.400 158.132 L 145.400 141.929 146.344 141.165 C 147.659 140.100,149.426 140.190,150.618 141.382 M166.218 141.382 L 167.200 142.364 167.200 158.260 L 167.200 174.156 166.125 175.278 C 164.760 176.703,163.255 176.736,161.970 175.368 L 161.000 174.336 161.000 158.132 L 161.000 141.929 161.944 141.165 C 163.259 140.100,165.026 140.190,166.218 141.382 M289.656 141.165 L 290.600 141.929 290.600 158.170 L 290.600 174.410 289.400 175.391 C 287.907 176.611,287.092 176.640,285.584 175.525 L 284.400 174.650 284.400 158.401 C 284.400 141.642,284.437 141.236,286.000 140.678 C 287.254 140.229,288.746 140.428,289.656 141.165 M117.786 146.781 C 115.861 147.561,115.800 147.911,115.800 158.252 L 115.800 167.981 116.909 169.091 C 118.659 170.841,126.891 170.806,128.526 169.042 L 129.600 167.883 129.600 158.568 C 129.600 148.315,129.460 147.508,127.569 146.849 C 126.095 146.335,119.007 146.286,117.786 146.781 M184.420 146.971 C 182.928 147.797,182.858 148.302,182.828 158.519 L 182.800 168.038 183.849 169.010 C 185.952 170.959,193.569 171.013,195.491 169.092 L 196.600 167.983 196.727 158.824 C 196.899 146.387,196.900 146.388,189.474 146.414 C 186.817 146.423,185.059 146.617,184.420 146.971 M221.161 146.845 C 219.176 147.573,219.000 148.528,219.000 158.561 L 219.000 167.800 220.139 169.000 L 221.277 170.200 226.006 170.200 C 230.461 170.200,230.795 170.144,231.768 169.230 L 232.800 168.261 232.800 158.124 L 232.800 147.988 231.500 147.196 C 230.061 146.318,223.226 146.086,221.161 146.845 M256.538 147.023 C 254.838 147.885,254.812 148.065,254.805 158.684 L 254.800 167.968 255.896 168.984 C 258.170 171.092,265.720 171.034,267.633 168.894 L 268.800 167.587 268.800 158.216 C 268.800 146.191,269.054 146.652,262.336 146.491 C 258.807 146.407,257.520 146.525,256.538 147.023 M148.456 194.644 C 153.485 197.418,154.000 199.031,154.000 212.000 C 154.000 223.529,153.721 225.075,151.233 227.323 C 148.516 229.778,148.421 229.800,140.787 229.800 L 133.774 229.800 131.835 228.400 C 128.243 225.806,127.877 224.559,127.682 214.237 C 127.338 195.997,129.130 193.446,142.056 193.775 C 146.056 193.876,147.394 194.058,148.456 194.644 M200.652 195.147 C 201.775 195.838,203.212 197.152,203.847 198.067 L 205.000 199.732 205.000 211.977 L 205.000 224.222 203.713 225.972 C 201.187 229.407,200.006 229.800,192.200 229.800 C 184.447 229.800,183.139 229.355,180.600 225.854 L 179.400 224.200 179.270 213.400 C 179.095 198.910,179.495 197.396,184.144 194.955 C 187.741 193.067,197.455 193.180,200.652 195.147 M283.078 195.084 C 287.765 197.959,288.179 199.628,287.943 214.722 L 287.800 223.921 286.551 225.661 C 285.864 226.617,284.543 227.940,283.616 228.600 L 281.930 229.800 274.865 229.800 C 262.908 229.800,261.612 228.092,261.604 212.331 C 261.598 199.897,262.331 197.339,266.546 195.085 C 270.214 193.123,279.880 193.123,283.078 195.084 M117.525 195.184 C 118.390 196.354,118.400 196.547,118.400 212.015 L 118.400 227.662 117.184 228.878 C 115.860 230.202,114.071 230.242,112.805 228.977 C 111.811 227.983,111.907 196.613,112.909 195.083 C 113.953 193.489,116.310 193.541,117.525 195.184 M168.873 195.300 C 170.021 196.909,170.542 223.629,169.495 227.200 C 168.653 230.069,164.899 230.965,163.969 228.518 C 163.286 226.721,163.504 196.545,164.210 195.180 C 165.127 193.407,167.567 193.470,168.873 195.300 M220.177 194.889 C 220.897 195.917,221.128 226.686,220.429 228.523 C 219.704 230.430,216.399 230.332,215.386 228.373 C 214.321 226.314,214.536 196.694,215.627 195.162 C 216.707 193.645,219.202 193.496,220.177 194.889 M235.891 195.082 C 236.786 196.447,237.211 223.393,236.396 227.123 C 235.702 230.299,232.384 231.076,230.993 228.387 C 229.922 226.315,230.130 196.702,231.227 195.162 C 232.387 193.533,234.848 193.491,235.891 195.082 M251.491 195.082 C 252.386 196.447,252.811 223.393,251.996 227.123 C 251.302 230.299,247.984 231.076,246.593 228.387 C 245.522 226.315,245.730 196.702,246.827 195.162 C 247.987 193.533,250.448 193.491,251.491 195.082 M135.721 200.479 C 133.436 201.583,133.083 221.860,135.325 223.286 C 136.298 223.904,145.894 223.649,146.556 222.987 C 148.763 220.780,148.617 203.017,146.374 200.774 C 145.488 199.888,137.408 199.664,135.721 200.479 M186.595 200.969 L 185.562 202.002 185.681 212.234 C 185.826 224.692,185.199 223.668,192.591 223.511 L 197.800 223.400 198.499 222.000 C 199.808 219.381,199.433 203.022,198.014 200.800 C 197.230 199.573,187.853 199.711,186.595 200.969 M269.978 200.261 C 267.819 200.843,266.840 219.093,268.796 222.300 L 269.588 223.600 274.718 223.600 C 282.018 223.600,281.400 224.673,281.400 211.997 L 281.400 201.529 280.456 200.765 C 279.553 200.034,272.139 199.677,269.978 200.261 " stroke="none" fill="#1eabe1" fill-rule="evenodd"></path><path id="path1" d="M91.400 115.294 C 88.968 116.519,87.999 117.414,86.850 119.497 L 85.800 121.400 85.690 184.447 C 85.572 252.487,85.659 256.520,87.284 258.886 C 90.538 263.622,87.516 263.331,136.000 263.583 L 177.800 263.800 177.926 265.563 C 177.995 266.533,177.781 268.603,177.450 270.163 C 177.119 271.723,176.734 273.810,176.595 274.800 C 176.339 276.619,175.164 280.110,174.151 282.062 C 173.848 282.646,173.600 283.422,173.600 283.786 C 173.600 284.151,173.130 285.473,172.555 286.725 C 171.981 287.976,171.158 289.810,170.727 290.800 C 170.296 291.790,169.774 292.870,169.566 293.200 C 169.358 293.530,168.993 294.295,168.755 294.900 C 168.517 295.505,168.177 296.000,168.000 296.000 C 167.823 296.000,167.490 296.540,167.260 297.200 L 166.842 298.400 154.192 298.400 L 141.542 298.400 139.854 299.389 C 134.478 302.540,134.611 309.871,140.100 312.938 L 142.000 314.000 200.014 314.000 L 258.028 314.000 260.003 312.872 C 265.475 309.747,265.570 302.568,260.182 299.410 L 258.458 298.400 245.929 298.399 L 233.400 298.397 232.206 296.099 C 231.550 294.834,230.817 293.530,230.578 293.200 C 230.338 292.870,229.647 291.430,229.041 290.000 C 228.435 288.570,227.699 286.860,227.407 286.200 C 227.114 285.540,226.387 283.650,225.792 282.000 C 225.197 280.350,224.469 278.370,224.176 277.600 C 223.882 276.830,223.532 275.390,223.397 274.400 C 223.262 273.410,222.881 271.321,222.549 269.757 C 222.217 268.193,222.002 266.213,222.072 265.357 L 222.200 263.800 264.000 263.585 C 312.772 263.333,309.956 263.630,313.114 258.400 L 314.200 256.600 314.200 188.800 L 314.200 121.000 313.232 119.400 C 312.019 117.395,310.687 116.225,308.449 115.201 C 305.679 113.934,93.920 114.024,91.400 115.294 M304.564 123.231 C 305.134 123.908,305.608 124.673,305.618 124.931 C 305.627 125.189,305.620 151.950,305.602 184.400 C 305.567 246.969,305.593 246.118,303.699 246.838 C 301.641 247.621,96.996 247.287,96.025 246.500 C 94.474 245.244,94.435 243.760,94.387 183.678 L 94.339 124.755 95.390 123.378 L 96.441 122.000 199.985 122.000 L 303.529 122.000 304.564 123.231 " stroke="none" fill="#f0cb32" fill-rule="evenodd"></path><path id="path2" d="M192.711 11.893 C 193.651 11.978,195.091 11.977,195.911 11.891 C 196.730 11.805,195.960 11.736,194.200 11.737 C 192.440 11.739,191.770 11.809,192.711 11.893 M204.311 11.893 C 205.251 11.978,206.691 11.977,207.511 11.891 C 208.330 11.805,207.560 11.736,205.800 11.737 C 204.040 11.739,203.370 11.809,204.311 11.893 M187.200 39.582 C 184.670 39.749,181.970 40.075,181.200 40.307 C 180.430 40.539,178.270 40.842,176.400 40.981 C 174.530 41.119,172.100 41.479,171.000 41.779 C 169.900 42.080,167.920 42.508,166.600 42.729 C 163.784 43.200,161.300 43.816,158.800 44.662 C 157.810 44.998,156.100 45.418,155.000 45.597 C 153.900 45.775,152.460 46.208,151.800 46.558 C 151.140 46.909,150.237 47.196,149.794 47.198 C 149.351 47.199,148.316 47.560,147.496 48.000 C 146.675 48.440,145.682 48.800,145.290 48.800 C 144.899 48.800,144.201 49.064,143.740 49.387 C 143.279 49.710,142.162 50.093,141.258 50.237 C 140.355 50.382,139.410 50.747,139.159 51.050 C 138.907 51.352,138.502 51.600,138.257 51.600 C 138.012 51.600,136.909 52.026,135.806 52.547 C 134.703 53.068,132.900 53.889,131.800 54.372 C 130.700 54.854,129.530 55.419,129.200 55.626 C 128.870 55.833,128.150 56.181,127.600 56.401 C 127.050 56.620,126.330 56.971,126.000 57.181 C 125.670 57.392,124.291 58.119,122.936 58.798 C 121.580 59.476,120.268 60.277,120.019 60.577 C 119.771 60.876,119.109 61.236,118.549 61.377 C 117.990 61.517,117.322 61.810,117.066 62.027 C 116.810 62.244,115.700 62.997,114.600 63.701 C 113.500 64.405,112.362 65.210,112.071 65.490 C 111.781 65.771,111.308 66.000,111.020 66.000 C 110.733 66.000,110.286 66.255,110.028 66.566 C 109.769 66.878,108.262 67.995,106.679 69.048 C 105.095 70.102,103.494 71.242,103.119 71.582 C 102.269 72.354,101.882 72.661,99.400 74.539 C 92.962 79.410,79.410 92.962,74.539 99.400 C 72.574 101.998,72.316 102.325,71.600 103.138 C 71.270 103.512,70.130 105.109,69.066 106.688 C 68.003 108.266,66.878 109.769,66.566 110.028 C 66.255 110.286,66.000 110.733,66.000 111.020 C 66.000 111.308,65.775 111.781,65.500 112.071 C 64.696 112.921,62.942 115.641,61.818 117.781 C 61.245 118.871,60.548 120.041,60.268 120.381 C 59.988 120.722,59.270 121.990,58.672 123.200 C 58.075 124.410,57.409 125.670,57.193 126.000 C 56.976 126.330,56.620 127.050,56.401 127.600 C 56.181 128.150,55.828 128.870,55.615 129.200 C 55.063 130.054,53.600 133.486,53.600 133.924 C 53.600 134.127,53.263 134.721,52.852 135.246 C 52.441 135.771,51.979 136.773,51.826 137.472 C 51.674 138.172,51.290 138.959,50.974 139.221 C 50.658 139.483,50.400 140.088,50.400 140.564 C 50.400 141.041,50.040 142.137,49.600 143.000 C 49.160 143.863,48.794 144.846,48.786 145.185 C 48.779 145.523,48.425 146.520,48.000 147.400 C 47.575 148.280,47.220 149.360,47.211 149.800 C 47.202 150.240,46.934 151.100,46.616 151.710 C 46.297 152.321,45.850 153.831,45.622 155.065 C 45.394 156.300,45.036 157.516,44.826 157.769 C 44.617 158.021,44.262 159.364,44.038 160.754 C 43.815 162.143,43.465 163.487,43.260 163.740 C 43.056 163.993,42.678 165.807,42.420 167.772 C 42.162 169.737,41.801 171.627,41.618 171.972 C 41.434 172.317,41.162 174.220,41.013 176.200 C 40.864 178.180,40.451 180.790,40.096 182.000 C 39.149 185.225,39.160 214.696,40.110 218.000 C 40.457 219.210,40.863 221.820,41.012 223.800 C 41.161 225.780,41.515 228.120,41.798 229.000 C 42.081 229.880,42.411 231.647,42.531 232.928 C 42.650 234.208,42.953 235.502,43.203 235.804 C 43.454 236.106,43.841 237.669,44.064 239.277 C 44.287 240.884,44.628 242.392,44.823 242.627 C 45.018 242.862,45.384 244.032,45.637 245.227 C 45.890 246.422,46.345 247.886,46.649 248.480 C 46.952 249.074,47.206 249.884,47.214 250.280 C 47.221 250.676,47.575 251.720,48.000 252.600 C 48.425 253.480,48.779 254.516,48.786 254.901 C 48.794 255.287,49.160 256.275,49.600 257.096 C 50.040 257.916,50.400 258.833,50.400 259.132 C 50.400 259.432,50.656 260.154,50.969 260.738 C 51.282 261.322,51.892 262.610,52.324 263.600 C 52.757 264.590,53.581 266.424,54.155 267.675 C 54.730 268.927,55.200 270.120,55.200 270.326 C 55.200 270.533,55.458 270.917,55.774 271.179 C 56.090 271.441,56.462 272.170,56.600 272.800 C 56.738 273.430,57.105 274.155,57.415 274.413 C 57.725 274.670,58.091 275.480,58.229 276.212 C 58.366 276.945,58.731 277.641,59.039 277.760 C 59.348 277.878,59.600 278.238,59.600 278.559 C 59.600 278.880,59.831 279.381,60.114 279.671 C 60.396 279.962,61.141 281.100,61.769 282.200 C 62.397 283.300,64.100 285.976,65.555 288.147 C 67.010 290.318,68.510 292.568,68.890 293.147 C 70.537 295.663,71.014 296.291,73.438 299.144 C 74.118 299.945,74.856 300.934,75.077 301.342 C 76.658 304.262,94.677 322.203,99.428 325.588 C 100.500 326.352,101.684 327.252,102.060 327.588 C 103.006 328.436,103.531 328.822,105.600 330.192 C 106.590 330.847,108.139 331.972,109.041 332.692 C 109.944 333.411,110.867 334.000,111.092 334.000 C 111.318 334.000,111.742 334.289,112.035 334.642 C 112.327 334.995,112.935 335.448,113.384 335.650 C 113.833 335.851,115.010 336.546,116.000 337.193 C 116.990 337.840,118.340 338.646,119.000 338.984 C 119.660 339.322,120.740 339.956,121.400 340.393 C 122.060 340.830,123.050 341.371,123.600 341.594 C 124.150 341.817,124.870 342.177,125.200 342.394 C 125.530 342.611,126.424 343.068,127.186 343.410 C 127.948 343.751,128.668 344.164,128.786 344.328 C 128.904 344.491,130.350 345.147,132.000 345.787 C 133.650 346.426,135.284 347.185,135.631 347.474 C 135.979 347.764,136.417 348.000,136.605 348.000 C 136.793 348.000,137.679 348.347,138.574 348.771 C 139.468 349.196,140.957 349.741,141.883 349.982 C 142.809 350.224,143.674 350.597,143.807 350.811 C 143.939 351.025,144.422 351.200,144.880 351.200 C 145.338 351.200,146.452 351.533,147.356 351.940 C 149.859 353.068,154.079 354.399,155.200 354.414 C 155.750 354.421,156.920 354.775,157.800 355.200 C 158.680 355.625,159.991 355.979,160.713 355.986 C 161.435 355.994,162.695 356.284,163.513 356.631 C 164.331 356.978,166.440 357.508,168.200 357.808 C 169.960 358.109,172.300 358.534,173.400 358.753 C 174.500 358.973,176.429 359.163,177.686 359.176 C 178.943 359.189,180.833 359.511,181.886 359.892 C 184.742 360.925,215.675 360.912,218.350 359.877 C 219.313 359.505,221.203 359.192,222.550 359.183 C 223.898 359.173,225.810 358.980,226.800 358.753 C 227.790 358.526,230.119 358.090,231.975 357.784 C 233.831 357.478,236.039 356.951,236.883 356.614 C 237.726 356.276,239.092 356.000,239.919 356.000 C 240.746 356.000,241.777 355.752,242.211 355.448 C 242.645 355.145,244.032 354.683,245.293 354.421 C 246.554 354.160,247.683 353.789,247.802 353.596 C 247.921 353.404,248.869 353.120,249.909 352.966 C 250.949 352.812,252.427 352.352,253.194 351.943 C 253.961 351.534,254.985 351.200,255.470 351.200 C 255.956 351.200,256.456 351.033,256.582 350.829 C 256.708 350.625,257.484 350.252,258.306 349.999 C 259.128 349.746,260.340 349.293,261.000 348.991 C 261.660 348.689,263.280 347.967,264.600 347.385 C 265.920 346.804,267.732 345.984,268.626 345.564 C 269.521 345.144,270.444 344.800,270.677 344.800 C 270.911 344.800,271.317 344.542,271.579 344.226 C 271.841 343.910,272.583 343.536,273.228 343.394 C 273.872 343.252,274.400 342.990,274.400 342.812 C 274.400 342.633,275.075 342.196,275.900 341.841 C 277.450 341.175,278.228 340.742,280.084 339.516 C 280.680 339.122,281.340 338.800,281.550 338.800 C 282.171 338.800,295.215 329.939,298.853 327.046 C 302.014 324.532,303.389 323.363,308.759 318.621 C 311.743 315.985,318.532 309.048,320.327 306.800 C 321.117 305.810,322.058 304.730,322.418 304.400 C 323.385 303.513,329.600 295.695,329.600 295.365 C 329.600 295.210,330.192 294.344,330.915 293.441 C 332.872 290.998,337.600 283.801,337.600 283.266 C 337.600 283.010,337.768 282.800,337.973 282.800 C 338.178 282.800,338.469 282.395,338.618 281.900 C 338.768 281.405,339.489 280.087,340.220 278.970 C 340.951 277.854,341.669 276.466,341.814 275.887 C 341.959 275.307,342.322 274.631,342.619 274.384 C 342.916 274.138,343.362 273.320,343.611 272.568 C 343.859 271.816,344.228 271.200,344.431 271.200 C 344.634 271.200,344.800 270.968,344.800 270.685 C 344.800 270.401,345.150 269.484,345.577 268.646 C 346.004 267.808,346.466 266.612,346.603 265.989 C 346.739 265.365,347.110 264.641,347.426 264.379 C 347.742 264.117,348.000 263.711,348.000 263.477 C 348.000 263.244,348.331 262.321,348.735 261.426 C 349.414 259.923,349.803 258.912,351.938 253.094 C 353.285 249.424,354.400 245.768,354.414 244.972 C 354.421 244.547,354.775 243.480,355.200 242.600 C 355.625 241.720,355.979 240.419,355.986 239.708 C 355.994 238.998,356.276 237.726,356.614 236.883 C 356.951 236.039,357.478 233.831,357.784 231.975 C 358.090 230.119,358.526 227.790,358.753 226.800 C 358.980 225.810,359.173 223.898,359.183 222.550 C 359.192 221.203,359.509 219.313,359.886 218.350 C 360.906 215.746,360.948 184.849,359.936 181.800 C 359.570 180.700,359.167 178.126,359.039 176.079 C 358.911 174.033,358.632 172.034,358.420 171.637 C 358.208 171.241,357.913 169.675,357.765 168.158 C 357.617 166.641,357.160 164.645,356.748 163.722 C 356.337 162.799,355.994 161.449,355.986 160.722 C 355.979 159.995,355.625 158.680,355.200 157.800 C 354.775 156.920,354.421 155.750,354.414 155.200 C 354.399 154.079,353.068 149.859,351.940 147.356 C 351.533 146.452,351.200 145.367,351.200 144.945 C 351.200 144.523,350.957 143.823,350.660 143.389 C 350.363 142.955,349.995 142.060,349.843 141.400 C 349.691 140.740,349.222 139.480,348.801 138.600 C 346.891 134.610,345.195 130.719,344.965 129.802 C 344.826 129.251,344.560 128.800,344.373 128.800 C 344.185 128.800,343.816 128.080,343.553 127.200 C 343.289 126.320,342.941 125.600,342.780 125.600 C 342.619 125.600,342.193 124.925,341.835 124.100 C 341.476 123.275,340.826 122.060,340.390 121.400 C 339.955 120.740,339.319 119.597,338.977 118.859 C 338.635 118.122,338.183 117.312,337.972 117.059 C 337.210 116.146,335.600 113.557,335.600 113.244 C 335.600 113.068,335.240 112.598,334.800 112.200 C 334.360 111.802,334.000 111.333,334.000 111.158 C 334.000 110.983,333.415 110.005,332.700 108.985 C 331.985 107.964,331.219 106.816,330.997 106.434 C 330.776 106.051,330.326 105.459,329.997 105.118 C 329.669 104.777,329.130 104.088,328.800 103.586 C 328.470 103.084,327.705 102.093,327.100 101.384 C 326.495 100.675,326.000 99.983,326.000 99.847 C 326.000 99.711,325.685 99.262,325.300 98.848 C 324.915 98.434,323.610 96.955,322.400 95.561 C 319.589 92.322,307.724 80.440,304.592 77.729 C 299.746 73.533,295.791 70.529,289.800 66.492 C 286.657 64.374,286.690 64.395,282.929 62.226 C 281.428 61.360,279.962 60.415,279.671 60.126 C 279.381 59.837,278.880 59.600,278.559 59.600 C 278.238 59.600,277.878 59.348,277.760 59.039 C 277.641 58.731,276.944 58.366,276.211 58.228 C 275.477 58.091,274.776 57.713,274.651 57.389 C 274.527 57.065,274.084 56.800,273.666 56.800 C 273.249 56.800,272.450 56.440,271.891 56.000 C 271.331 55.560,270.632 55.194,270.337 55.187 C 270.042 55.181,268.900 54.732,267.800 54.191 C 266.700 53.650,265.597 53.206,265.349 53.204 C 265.101 53.202,264.674 52.930,264.400 52.600 C 264.126 52.270,263.606 52.000,263.245 52.000 C 262.884 52.000,261.916 51.640,261.096 51.200 C 260.275 50.760,259.375 50.400,259.096 50.400 C 258.816 50.400,257.916 50.040,257.096 49.600 C 256.275 49.160,255.287 48.794,254.901 48.786 C 254.516 48.779,253.480 48.425,252.600 48.000 C 251.720 47.575,250.676 47.221,250.280 47.214 C 249.884 47.206,249.074 46.952,248.480 46.649 C 247.886 46.345,246.422 45.890,245.227 45.637 C 244.032 45.384,242.862 45.018,242.627 44.823 C 242.392 44.628,240.884 44.287,239.277 44.064 C 237.669 43.841,236.106 43.454,235.804 43.203 C 235.502 42.953,234.208 42.650,232.928 42.531 C 231.647 42.411,229.879 42.080,228.997 41.794 C 228.115 41.509,225.685 41.144,223.597 40.983 C 221.509 40.822,218.990 40.446,218.000 40.146 C 215.850 39.495,194.452 39.103,187.200 39.582 M308.449 115.201 C 310.687 116.225,312.019 117.395,313.232 119.400 L 314.200 121.000 314.385 189.200 C 314.626 277.941,314.752 268.043,313.354 270.092 C 312.101 271.928,310.436 273.566,309.800 273.590 C 309.580 273.598,308.860 273.919,308.200 274.302 C 307.083 274.952,304.116 275.008,265.300 275.109 C 229.273 275.203,223.600 275.296,223.600 275.795 C 223.600 276.113,223.852 276.964,224.159 277.686 C 224.467 278.409,225.204 280.350,225.797 282.000 C 226.389 283.650,227.114 285.540,227.407 286.200 C 227.699 286.860,228.435 288.570,229.041 290.000 C 229.647 291.430,230.338 292.870,230.578 293.200 C 230.817 293.530,231.550 294.834,232.206 296.099 L 233.400 298.397 245.929 298.399 L 258.458 298.400 260.182 299.410 C 263.562 301.391,265.592 307.781,263.415 309.587 C 262.330 310.488,262.319 311.523,263.377 313.080 C 265.802 316.650,264.141 322.083,259.985 324.170 L 257.934 325.200 200.111 325.200 L 142.288 325.200 140.491 324.303 C 136.072 322.096,134.154 316.615,136.564 313.082 C 137.817 311.246,137.826 311.074,136.753 309.622 C 134.663 306.795,136.271 301.489,139.854 299.389 L 141.542 298.400 154.192 298.400 L 166.842 298.400 167.260 297.200 C 167.490 296.540,167.823 296.000,168.000 296.000 C 168.177 296.000,168.517 295.505,168.755 294.900 C 168.993 294.295,169.358 293.530,169.566 293.200 C 169.774 292.870,170.296 291.790,170.727 290.800 C 171.158 289.810,171.981 287.976,172.555 286.725 C 173.130 285.473,173.600 284.151,173.600 283.786 C 173.600 283.422,173.848 282.646,174.151 282.062 C 175.053 280.324,176.400 276.635,176.400 275.903 C 176.400 275.266,173.675 275.214,134.700 275.111 C 95.886 275.008,92.917 274.952,91.800 274.302 C 91.140 273.919,90.390 273.604,90.134 273.602 C 89.519 273.599,86.421 270.074,85.913 268.800 C 85.481 267.717,85.077 258.122,85.439 257.537 C 85.560 257.341,85.691 226.630,85.729 189.291 L 85.800 121.400 86.850 119.497 C 87.999 117.414,88.968 116.519,91.400 115.294 C 93.920 114.024,305.679 113.934,308.449 115.201 M11.734 194.000 C 11.734 195.650,11.805 196.325,11.891 195.500 C 11.978 194.675,11.978 193.325,11.891 192.500 C 11.805 191.675,11.734 192.350,11.734 194.000 M11.734 206.000 C 11.734 207.650,11.805 208.325,11.891 207.500 C 11.978 206.675,11.978 205.325,11.891 204.500 C 11.805 203.675,11.734 204.350,11.734 206.000 " stroke="none" fill="#443484" fill-rule="evenodd"></path><path id="path3" d="M185.634 11.922 C 185.395 12.002,185.200 12.322,185.200 12.633 C 185.200 13.098,184.027 13.206,178.700 13.231 C 171.325 13.265,170.791 13.324,170.179 14.160 C 169.844 14.619,168.808 14.781,165.903 14.830 C 162.621 14.886,162.042 14.996,161.885 15.595 C 161.734 16.175,161.105 16.326,158.206 16.478 C 155.483 16.621,154.627 16.809,154.335 17.331 C 154.050 17.839,153.389 18.000,151.580 18.000 C 149.467 18.000,149.200 18.090,149.200 18.800 C 149.200 19.521,145.853 20.019,143.500 19.647 C 143.335 19.621,143.200 19.960,143.200 20.400 C 143.200 21.105,142.933 21.200,140.963 21.200 C 139.062 21.200,138.694 21.320,138.516 22.000 C 138.339 22.677,137.970 22.800,136.116 22.800 C 134.262 22.800,133.893 22.923,133.716 23.600 C 133.552 24.227,133.170 24.400,131.953 24.400 C 130.839 24.400,130.400 24.570,130.400 25.000 C 130.400 25.330,130.085 25.621,129.700 25.646 C 129.315 25.672,128.820 25.734,128.600 25.785 C 128.380 25.836,127.726 25.906,127.147 25.939 C 126.492 25.977,126.020 26.280,125.900 26.739 C 125.749 27.317,125.430 27.436,124.429 27.290 C 123.379 27.135,123.111 27.253,122.929 27.951 C 122.807 28.418,122.413 28.821,122.053 28.846 C 121.694 28.872,121.220 28.934,121.000 28.985 C 120.780 29.036,120.375 29.106,120.100 29.139 C 119.825 29.173,119.600 29.470,119.600 29.800 C 119.600 30.233,119.156 30.400,118.000 30.400 C 116.667 30.400,116.400 30.533,116.400 31.200 C 116.400 31.852,116.133 32.000,114.963 32.000 C 113.875 32.000,113.476 32.189,113.322 32.778 C 113.175 33.337,112.707 33.591,111.659 33.678 C 110.556 33.770,110.214 33.971,110.256 34.500 C 110.300 35.056,109.992 35.200,108.756 35.200 C 107.467 35.200,107.200 35.337,107.200 36.000 C 107.200 36.734,106.117 37.091,104.666 36.836 C 104.482 36.804,104.236 37.142,104.119 37.589 C 104.002 38.035,103.611 38.400,103.250 38.400 C 102.888 38.400,102.368 38.760,102.093 39.200 C 101.774 39.710,101.160 40.000,100.397 40.000 C 99.467 40.000,99.200 40.178,99.200 40.800 C 99.200 41.428,98.933 41.600,97.963 41.600 C 97.064 41.600,96.668 41.818,96.517 42.396 C 96.403 42.833,96.166 43.102,95.991 42.994 C 95.388 42.621,94.400 43.287,94.400 44.066 C 94.400 44.530,94.222 44.737,93.962 44.576 C 93.721 44.428,93.046 44.654,92.462 45.080 C 91.878 45.506,91.085 45.971,90.700 46.114 C 90.315 46.258,90.000 46.651,90.000 46.987 C 90.000 47.333,89.652 47.600,89.200 47.600 C 88.667 47.600,88.400 47.867,88.400 48.400 C 88.400 48.917,88.117 49.218,87.600 49.250 C 87.160 49.278,86.620 49.345,86.400 49.400 C 86.180 49.455,85.820 49.523,85.600 49.550 C 85.380 49.578,85.200 49.870,85.200 50.200 C 85.200 50.533,84.844 50.800,84.400 50.800 C 83.883 50.800,83.600 51.067,83.600 51.553 C 83.600 51.970,83.243 52.400,82.800 52.516 C 82.360 52.631,82.000 53.012,82.000 53.363 C 82.000 53.713,81.738 54.000,81.418 54.000 C 81.098 54.000,80.377 54.460,79.815 55.022 C 79.253 55.583,78.603 55.925,78.370 55.781 C 78.137 55.637,77.852 55.881,77.736 56.323 C 77.621 56.765,77.183 57.216,76.763 57.326 C 76.343 57.435,76.000 57.812,76.000 58.163 C 76.000 58.520,75.669 58.800,75.247 58.800 C 74.818 58.800,74.399 59.162,74.274 59.640 C 74.152 60.104,73.862 60.362,73.626 60.216 C 73.387 60.068,73.020 60.421,72.794 61.017 C 72.527 61.718,72.186 62.003,71.794 61.853 C 71.393 61.699,71.200 61.880,71.200 62.413 C 71.200 62.933,70.929 63.200,70.400 63.200 C 69.883 63.200,69.600 63.467,69.600 63.953 C 69.600 64.370,69.243 64.800,68.800 64.916 C 68.360 65.031,68.000 65.391,68.000 65.716 C 68.000 66.041,67.640 66.401,67.200 66.516 C 66.760 66.631,66.400 66.991,66.400 67.316 C 66.400 67.641,66.040 68.001,65.600 68.116 C 65.160 68.231,64.800 68.612,64.800 68.963 C 64.800 69.333,64.465 69.600,64.000 69.600 C 63.467 69.600,63.200 69.867,63.200 70.400 C 63.200 70.947,62.933 71.200,62.357 71.200 C 61.765 71.200,61.584 71.382,61.750 71.813 C 61.907 72.222,61.647 72.554,60.968 72.812 C 60.404 73.027,60.069 73.389,60.216 73.626 C 60.362 73.862,60.104 74.152,59.640 74.274 C 59.178 74.394,58.800 74.811,58.800 75.200 C 58.800 75.589,58.440 76.001,58.000 76.116 C 57.560 76.231,57.200 76.600,57.200 76.936 C 57.200 77.271,56.840 77.660,56.400 77.800 C 55.960 77.940,55.600 78.400,55.600 78.824 C 55.600 79.247,55.240 79.818,54.800 80.093 C 54.360 80.368,54.000 80.888,54.000 81.250 C 54.000 81.611,53.640 82.001,53.200 82.116 C 52.760 82.231,52.400 82.612,52.400 82.963 C 52.400 83.333,52.065 83.600,51.600 83.600 C 51.008 83.600,50.800 83.867,50.800 84.624 C 50.800 85.273,50.637 85.547,50.355 85.372 C 49.766 85.008,49.214 85.934,49.206 87.300 C 49.201 88.131,49.005 88.400,48.400 88.400 C 47.883 88.400,47.600 88.667,47.600 89.153 C 47.600 89.570,47.243 90.000,46.800 90.116 C 46.321 90.241,46.000 90.662,46.000 91.163 C 46.000 91.623,45.820 92.000,45.600 92.000 C 45.380 92.000,45.200 92.270,45.200 92.600 C 45.200 92.930,45.001 93.200,44.757 93.200 C 44.514 93.200,44.418 93.470,44.545 93.800 C 44.751 94.338,44.390 94.571,43.772 94.300 C 43.415 94.144,42.731 95.565,42.974 95.958 C 43.093 96.151,42.833 96.403,42.396 96.517 C 41.818 96.668,41.600 97.064,41.600 97.963 C 41.600 98.933,41.428 99.200,40.800 99.200 C 40.178 99.200,40.000 99.467,40.000 100.397 C 40.000 101.160,39.710 101.774,39.200 102.093 C 38.760 102.368,38.400 102.888,38.400 103.250 C 38.400 103.611,38.040 104.001,37.600 104.116 C 36.987 104.276,36.800 104.662,36.800 105.763 C 36.800 106.933,36.652 107.200,36.000 107.200 C 35.337 107.200,35.200 107.467,35.200 108.756 C 35.200 109.992,35.056 110.300,34.500 110.256 C 33.971 110.214,33.770 110.556,33.678 111.659 C 33.591 112.707,33.337 113.175,32.778 113.322 C 32.189 113.476,32.000 113.875,32.000 114.963 C 32.000 116.133,31.852 116.400,31.200 116.400 C 30.533 116.400,30.400 116.667,30.400 118.000 C 30.400 119.294,30.258 119.600,29.655 119.600 C 29.151 119.600,28.908 119.891,28.903 120.500 C 28.889 122.417,28.773 122.714,27.951 122.929 C 27.253 123.111,27.135 123.379,27.290 124.429 C 27.436 125.430,27.317 125.749,26.739 125.900 C 26.280 126.020,25.977 126.492,25.939 127.147 C 25.906 127.726,25.836 128.380,25.785 128.600 C 25.734 128.820,25.672 129.315,25.646 129.700 C 25.621 130.085,25.330 130.400,25.000 130.400 C 24.570 130.400,24.400 130.839,24.400 131.953 C 24.400 133.170,24.227 133.552,23.600 133.716 C 22.920 133.894,22.800 134.262,22.800 136.163 C 22.800 138.133,22.705 138.400,22.000 138.400 C 21.289 138.400,21.200 138.667,21.200 140.800 C 21.200 142.862,21.097 143.200,20.466 143.200 C 19.840 143.200,19.720 143.569,19.654 145.700 C 19.594 147.633,19.398 148.351,18.788 148.864 C 18.179 149.378,18.000 150.031,18.000 151.744 C 18.000 153.439,17.835 154.052,17.300 154.352 C 16.738 154.666,16.572 155.417,16.460 158.158 C 16.343 160.999,16.200 161.610,15.610 161.797 C 15.004 161.989,14.891 162.574,14.830 165.831 C 14.772 168.947,14.624 169.776,14.017 170.383 C 13.361 171.039,13.268 171.866,13.220 177.450 C 13.175 182.798,13.061 183.890,12.484 184.528 C 11.410 185.715,11.405 213.644,12.479 215.010 C 13.106 215.806,13.200 216.767,13.200 222.363 C 13.200 228.211,13.271 228.871,13.980 229.580 C 14.631 230.231,14.771 230.985,14.830 234.169 C 14.891 237.424,15.004 238.011,15.609 238.203 C 16.191 238.388,16.342 238.998,16.463 241.649 C 16.576 244.132,16.769 244.988,17.305 245.380 C 17.834 245.767,18.000 246.473,18.000 248.344 C 18.000 250.533,18.087 250.800,18.800 250.800 C 19.529 250.800,19.600 251.067,19.600 253.800 C 19.600 256.533,19.671 256.800,20.400 256.800 C 21.111 256.800,21.200 257.067,21.200 259.200 C 21.200 261.333,21.289 261.600,22.000 261.600 C 22.705 261.600,22.800 261.867,22.800 263.837 C 22.800 265.738,22.920 266.106,23.600 266.284 C 24.227 266.448,24.400 266.830,24.400 268.047 C 24.400 269.161,24.570 269.600,25.000 269.600 C 25.330 269.600,25.621 269.915,25.646 270.300 C 25.672 270.685,25.734 271.180,25.785 271.400 C 25.836 271.620,25.906 272.274,25.939 272.853 C 25.980 273.557,26.279 273.980,26.840 274.126 C 27.332 274.255,27.565 274.533,27.403 274.796 C 26.973 275.491,27.545 277.200,28.208 277.200 C 28.779 277.200,28.889 277.565,28.903 279.500 C 28.908 280.109,29.151 280.400,29.655 280.400 C 30.258 280.400,30.400 280.706,30.400 282.000 C 30.400 283.333,30.533 283.600,31.200 283.600 C 31.852 283.600,32.000 283.867,32.000 285.037 C 32.000 286.138,32.187 286.524,32.800 286.684 C 33.406 286.843,33.600 287.230,33.600 288.284 C 33.600 289.338,33.794 289.725,34.400 289.884 C 35.001 290.041,35.200 290.430,35.200 291.447 C 35.200 292.533,35.358 292.800,36.000 292.800 C 36.734 292.800,37.091 293.883,36.836 295.334 C 36.804 295.518,37.142 295.764,37.589 295.881 C 38.035 295.998,38.400 296.389,38.400 296.750 C 38.400 297.112,38.760 297.632,39.200 297.907 C 39.710 298.226,40.000 298.840,40.000 299.603 C 40.000 300.533,40.178 300.800,40.800 300.800 C 41.382 300.800,41.600 301.067,41.600 301.777 C 41.600 302.315,41.915 302.990,42.300 303.277 C 42.685 303.565,43.018 304.025,43.040 304.300 C 43.132 305.456,43.237 305.600,43.987 305.600 C 44.465 305.600,44.697 305.803,44.578 306.114 C 44.469 306.397,44.745 307.019,45.190 307.497 C 45.636 307.975,46.000 308.661,46.000 309.021 C 46.000 309.381,46.360 309.769,46.800 309.884 C 47.243 310.000,47.600 310.430,47.600 310.847 C 47.600 311.333,47.883 311.600,48.400 311.600 C 49.022 311.600,49.200 311.867,49.200 312.797 C 49.200 313.560,49.490 314.174,50.000 314.493 C 50.440 314.768,50.800 315.309,50.800 315.696 C 50.800 316.133,51.103 316.400,51.600 316.400 C 52.133 316.400,52.400 316.667,52.400 317.200 C 52.400 317.733,52.667 318.000,53.200 318.000 C 53.640 318.000,54.000 318.262,54.000 318.582 C 54.000 318.902,54.460 319.623,55.022 320.185 C 55.583 320.747,55.925 321.397,55.781 321.630 C 55.637 321.863,55.898 322.153,56.360 322.274 C 56.822 322.394,57.200 322.811,57.200 323.200 C 57.200 323.589,57.560 324.001,58.000 324.116 C 58.440 324.231,58.800 324.612,58.800 324.963 C 58.800 325.330,59.134 325.600,59.587 325.600 C 60.136 325.600,60.302 325.789,60.135 326.224 C 59.976 326.641,60.179 326.922,60.748 327.071 C 61.523 327.273,61.777 327.677,61.647 328.500 C 61.621 328.665,61.960 328.800,62.400 328.800 C 62.933 328.800,63.200 329.067,63.200 329.600 C 63.200 330.133,63.467 330.400,64.000 330.400 C 64.465 330.400,64.800 330.667,64.800 331.037 C 64.800 331.388,65.160 331.769,65.600 331.884 C 66.040 331.999,66.400 332.359,66.400 332.684 C 66.400 333.009,66.760 333.369,67.200 333.484 C 67.643 333.600,68.000 334.030,68.000 334.447 C 68.000 334.933,68.283 335.200,68.800 335.200 C 69.333 335.200,69.600 335.467,69.600 336.000 C 69.600 336.533,69.867 336.800,70.400 336.800 C 70.933 336.800,71.200 337.067,71.200 337.600 C 71.200 338.133,71.467 338.400,72.000 338.400 C 72.465 338.400,72.800 338.667,72.800 339.037 C 72.800 339.388,73.160 339.769,73.600 339.884 C 74.040 339.999,74.400 340.359,74.400 340.684 C 74.400 341.009,74.760 341.369,75.200 341.484 C 75.640 341.599,76.000 341.942,76.000 342.247 C 76.000 342.551,76.339 342.800,76.753 342.800 C 77.170 342.800,77.600 343.157,77.716 343.600 C 77.841 344.077,78.262 344.400,78.759 344.400 C 79.218 344.400,79.818 344.760,80.093 345.200 C 80.368 345.640,80.909 346.000,81.296 346.000 C 81.683 346.000,82.000 346.287,82.000 346.637 C 82.000 346.988,82.360 347.369,82.800 347.484 C 83.243 347.600,83.600 348.030,83.600 348.447 C 83.600 348.933,83.883 349.200,84.400 349.200 C 84.840 349.200,85.200 349.451,85.200 349.757 C 85.200 350.402,86.052 350.800,87.433 350.800 C 88.133 350.800,88.400 351.021,88.400 351.600 C 88.400 352.117,88.667 352.400,89.153 352.400 C 89.570 352.400,90.000 352.757,90.116 353.200 C 90.256 353.737,90.662 354.000,91.348 354.000 C 91.962 354.000,92.543 354.320,92.800 354.800 C 93.035 355.240,93.492 355.600,93.814 355.600 C 94.136 355.600,94.400 355.867,94.400 356.192 C 94.400 356.518,94.893 356.909,95.496 357.060 C 96.099 357.211,96.832 357.575,97.125 357.867 C 97.418 358.160,98.004 358.400,98.429 358.400 C 98.933 358.400,99.200 358.677,99.200 359.200 C 99.200 359.822,99.467 360.000,100.397 360.000 C 101.160 360.000,101.774 360.290,102.093 360.800 C 102.368 361.240,102.888 361.600,103.250 361.600 C 103.611 361.600,104.001 361.960,104.116 362.400 C 104.276 363.013,104.662 363.200,105.763 363.200 C 106.933 363.200,107.200 363.348,107.200 364.000 C 107.200 364.645,107.467 364.800,108.573 364.800 C 109.595 364.800,110.011 365.005,110.200 365.600 C 110.387 366.188,110.805 366.400,111.780 366.400 C 112.770 366.400,113.160 366.603,113.316 367.200 C 113.476 367.813,113.862 368.000,114.963 368.000 C 116.133 368.000,116.400 368.148,116.400 368.800 C 116.400 369.463,116.667 369.600,117.953 369.600 C 119.170 369.600,119.552 369.773,119.716 370.400 C 119.876 371.013,120.262 371.200,121.363 371.200 C 122.325 371.200,122.800 371.384,122.800 371.757 C 122.800 372.402,123.652 372.800,125.033 372.800 C 125.587 372.800,126.000 373.035,126.000 373.350 C 126.000 373.898,127.648 374.400,129.450 374.400 C 130.028 374.400,130.400 374.635,130.400 375.000 C 130.400 375.430,130.839 375.600,131.953 375.600 C 133.170 375.600,133.552 375.773,133.716 376.400 C 133.893 377.077,134.262 377.200,136.116 377.200 C 137.970 377.200,138.339 377.323,138.516 378.000 C 138.693 378.677,139.062 378.800,140.916 378.800 C 142.770 378.800,143.139 378.923,143.316 379.600 C 143.500 380.305,143.862 380.400,146.363 380.400 C 148.933 380.400,149.200 380.475,149.200 381.200 C 149.200 381.933,149.467 382.000,152.400 382.000 C 155.333 382.000,155.600 382.067,155.600 382.800 C 155.600 383.529,155.867 383.600,158.586 383.600 C 161.162 383.600,161.631 383.710,162.000 384.400 C 162.383 385.117,162.838 385.200,166.352 385.200 C 169.768 385.200,170.370 385.304,171.000 386.000 C 171.669 386.740,172.232 386.800,178.462 386.800 C 183.932 386.800,185.200 386.904,185.200 387.353 C 185.200 388.292,186.584 388.389,200.000 388.389 C 213.416 388.389,214.800 388.292,214.800 387.353 C 214.800 386.904,216.068 386.800,221.538 386.800 C 227.768 386.800,228.331 386.740,229.000 386.000 C 229.635 385.299,230.232 385.200,233.835 385.200 C 237.595 385.200,237.968 385.132,238.200 384.400 C 238.424 383.695,238.805 383.600,241.427 383.600 C 243.867 383.600,244.544 383.456,245.200 382.800 C 245.822 382.178,246.533 382.000,248.400 382.000 C 250.533 382.000,250.800 381.911,250.800 381.200 C 250.800 380.471,251.067 380.400,253.800 380.400 C 256.533 380.400,256.800 380.329,256.800 379.600 C 256.800 378.889,257.067 378.800,259.200 378.800 C 261.333 378.800,261.600 378.711,261.600 378.000 C 261.600 377.295,261.867 377.200,263.837 377.200 C 265.738 377.200,266.106 377.080,266.284 376.400 C 266.448 375.773,266.830 375.600,268.047 375.600 C 269.161 375.600,269.600 375.430,269.600 375.000 C 269.600 374.591,270.014 374.398,270.900 374.395 C 272.800 374.387,274.000 373.984,274.000 373.353 C 274.000 372.985,274.480 372.800,275.437 372.800 C 276.538 372.800,276.924 372.613,277.084 372.000 C 277.248 371.373,277.630 371.200,278.847 371.200 C 280.133 371.200,280.400 371.063,280.400 370.400 C 280.400 369.733,280.667 369.600,282.000 369.600 C 283.333 369.600,283.600 369.467,283.600 368.800 C 283.600 368.148,283.867 368.000,285.037 368.000 C 286.138 368.000,286.524 367.813,286.684 367.200 C 286.843 366.594,287.230 366.400,288.284 366.400 C 289.338 366.400,289.725 366.206,289.884 365.600 C 290.041 364.999,290.430 364.800,291.447 364.800 C 292.533 364.800,292.800 364.642,292.800 364.000 C 292.800 363.348,293.067 363.200,294.237 363.200 C 295.338 363.200,295.724 363.013,295.884 362.400 C 296.000 361.957,296.430 361.600,296.847 361.600 C 297.333 361.600,297.600 361.317,297.600 360.800 C 297.600 360.133,297.867 360.000,299.200 360.000 C 300.533 360.000,300.800 359.867,300.800 359.200 C 300.800 358.624,301.067 358.400,301.751 358.400 C 302.274 358.400,302.911 358.148,303.167 357.839 C 303.423 357.531,304.075 357.167,304.616 357.032 C 305.157 356.896,305.600 356.518,305.600 356.192 C 305.600 355.867,305.836 355.600,306.125 355.600 C 306.413 355.600,307.036 355.240,307.508 354.800 C 307.980 354.360,308.661 354.000,309.021 354.000 C 309.381 354.000,309.769 353.640,309.884 353.200 C 310.000 352.757,310.430 352.400,310.847 352.400 C 311.333 352.400,311.600 352.117,311.600 351.600 C 311.600 350.978,311.867 350.800,312.797 350.800 C 313.560 350.800,314.174 350.510,314.493 350.000 C 314.768 349.560,315.309 349.200,315.696 349.200 C 316.133 349.200,316.400 348.897,316.400 348.400 C 316.400 347.867,316.667 347.600,317.200 347.600 C 317.733 347.600,318.000 347.333,318.000 346.800 C 318.000 346.303,318.267 346.000,318.704 346.000 C 319.091 346.000,319.632 345.640,319.907 345.200 C 320.182 344.760,320.782 344.400,321.241 344.400 C 321.738 344.400,322.159 344.077,322.284 343.600 C 322.400 343.157,322.830 342.800,323.247 342.800 C 323.661 342.800,324.000 342.551,324.000 342.247 C 324.000 341.942,324.360 341.599,324.800 341.484 C 325.240 341.369,325.600 341.009,325.600 340.684 C 325.600 340.359,325.960 339.999,326.400 339.884 C 326.840 339.769,327.200 339.388,327.200 339.037 C 327.200 338.667,327.535 338.400,328.000 338.400 C 328.533 338.400,328.800 338.133,328.800 337.600 C 328.800 337.067,329.067 336.800,329.600 336.800 C 330.133 336.800,330.400 336.533,330.400 336.000 C 330.400 335.467,330.667 335.200,331.200 335.200 C 331.733 335.200,332.000 334.933,332.000 334.400 C 332.000 333.867,332.267 333.600,332.800 333.600 C 333.333 333.600,333.600 333.333,333.600 332.800 C 333.600 332.267,333.867 332.000,334.400 332.000 C 334.933 332.000,335.200 331.733,335.200 331.200 C 335.200 330.667,335.467 330.400,336.000 330.400 C 336.533 330.400,336.800 330.133,336.800 329.600 C 336.800 329.067,337.067 328.800,337.600 328.800 C 338.117 328.800,338.400 328.533,338.400 328.047 C 338.400 327.630,338.757 327.200,339.200 327.084 C 339.640 326.969,340.000 326.609,340.000 326.284 C 340.000 325.959,340.360 325.599,340.800 325.484 C 341.240 325.369,341.600 324.988,341.600 324.637 C 341.600 324.287,341.870 324.000,342.200 324.000 C 342.530 324.000,342.800 323.661,342.800 323.247 C 342.800 322.830,343.157 322.400,343.600 322.284 C 344.077 322.159,344.400 321.738,344.400 321.241 C 344.400 320.782,344.760 320.182,345.200 319.907 C 345.640 319.632,346.000 319.091,346.000 318.704 C 346.000 318.267,346.303 318.000,346.800 318.000 C 347.333 318.000,347.600 317.733,347.600 317.200 C 347.600 316.667,347.867 316.400,348.400 316.400 C 348.933 316.400,349.200 316.133,349.200 315.600 C 349.200 315.160,349.451 314.800,349.757 314.800 C 350.402 314.800,350.800 313.948,350.800 312.567 C 350.800 311.867,351.021 311.600,351.600 311.600 C 352.133 311.600,352.400 311.333,352.400 310.800 C 352.400 310.360,352.660 310.000,352.978 310.000 C 353.539 310.000,354.256 308.971,355.280 306.700 C 355.552 306.095,356.002 305.600,356.280 305.600 C 356.558 305.600,356.896 305.157,357.032 304.616 C 357.167 304.075,357.531 303.423,357.839 303.167 C 358.148 302.911,358.400 302.274,358.400 301.751 C 358.400 301.067,358.624 300.800,359.200 300.800 C 359.867 300.800,360.000 300.533,360.000 299.200 C 360.000 297.867,360.133 297.600,360.800 297.600 C 361.317 297.600,361.600 297.333,361.600 296.847 C 361.600 296.430,361.957 296.000,362.400 295.884 C 363.013 295.724,363.200 295.338,363.200 294.237 C 363.200 293.067,363.348 292.800,364.000 292.800 C 364.642 292.800,364.800 292.533,364.800 291.447 C 364.800 290.430,364.999 290.041,365.600 289.884 C 366.206 289.725,366.400 289.338,366.400 288.284 C 366.400 287.230,366.594 286.843,367.200 286.684 C 367.813 286.524,368.000 286.138,368.000 285.037 C 368.000 283.867,368.148 283.600,368.800 283.600 C 369.463 283.600,369.600 283.333,369.600 282.047 C 369.600 280.830,369.773 280.448,370.400 280.284 C 371.013 280.124,371.200 279.738,371.200 278.637 C 371.200 277.675,371.384 277.200,371.757 277.200 C 372.402 277.200,372.800 276.348,372.800 274.967 C 372.800 274.410,373.035 274.000,373.353 274.000 C 373.984 274.000,374.387 272.800,374.395 270.900 C 374.398 270.014,374.591 269.600,375.000 269.600 C 375.430 269.600,375.600 269.161,375.600 268.047 C 375.600 266.830,375.773 266.448,376.400 266.284 C 377.077 266.107,377.200 265.738,377.200 263.884 C 377.200 262.030,377.323 261.661,378.000 261.484 C 378.680 261.306,378.800 260.938,378.800 259.037 C 378.800 257.067,378.895 256.800,379.600 256.800 C 380.329 256.800,380.400 256.533,380.400 253.800 C 380.400 251.067,380.471 250.800,381.200 250.800 C 381.911 250.800,382.000 250.533,382.000 248.400 C 382.000 246.533,382.178 245.822,382.800 245.200 C 383.456 244.544,383.600 243.867,383.600 241.427 C 383.600 238.805,383.695 238.424,384.400 238.200 C 385.132 237.968,385.200 237.595,385.200 233.835 C 385.200 230.232,385.299 229.635,386.000 229.000 C 386.735 228.335,386.800 227.768,386.800 222.070 C 386.800 216.720,386.897 215.756,387.500 215.090 C 388.676 213.791,388.780 186.711,387.615 185.135 C 386.880 184.141,386.800 183.442,386.800 178.035 C 386.800 172.372,386.427 170.000,385.536 170.000 C 385.351 170.000,385.200 168.212,385.200 166.027 C 385.200 162.476,385.119 162.028,384.440 161.813 C 383.788 161.606,383.661 161.089,383.540 158.158 C 383.428 155.417,383.262 154.666,382.700 154.352 C 382.156 154.047,382.000 153.431,382.000 151.580 C 382.000 149.467,381.910 149.200,381.200 149.200 C 380.471 149.200,380.400 148.933,380.400 146.200 C 380.400 143.467,380.329 143.200,379.600 143.200 C 378.889 143.200,378.800 142.933,378.800 140.800 C 378.800 138.667,378.711 138.400,378.000 138.400 C 377.295 138.400,377.200 138.133,377.200 136.163 C 377.200 134.262,377.080 133.894,376.400 133.716 C 375.773 133.552,375.600 133.170,375.600 131.953 C 375.600 130.839,375.430 130.400,375.000 130.400 C 374.635 130.400,374.400 130.028,374.400 129.450 C 374.400 127.648,373.898 126.000,373.350 126.000 C 372.985 126.000,372.800 125.516,372.800 124.563 C 372.800 123.462,372.613 123.076,372.000 122.916 C 371.373 122.752,371.200 122.370,371.200 121.153 C 371.200 119.867,371.063 119.600,370.400 119.600 C 369.733 119.600,369.600 119.333,369.600 118.000 C 369.600 116.667,369.467 116.400,368.800 116.400 C 368.148 116.400,368.000 116.133,368.000 114.963 C 368.000 113.875,367.811 113.476,367.222 113.322 C 366.663 113.175,366.409 112.707,366.322 111.659 C 366.230 110.556,366.029 110.214,365.500 110.256 C 364.944 110.300,364.800 109.992,364.800 108.756 C 364.800 107.467,364.663 107.200,364.000 107.200 C 363.348 107.200,363.200 106.933,363.200 105.763 C 363.200 104.662,363.013 104.276,362.400 104.116 C 361.960 104.001,361.600 103.611,361.600 103.250 C 361.600 102.888,361.240 102.368,360.800 102.093 C 360.290 101.774,360.000 101.160,360.000 100.397 C 360.000 99.467,359.822 99.200,359.200 99.200 C 358.576 99.200,358.400 98.933,358.400 97.987 C 358.400 97.313,358.150 96.679,357.836 96.559 C 357.526 96.439,357.161 95.898,357.024 95.355 C 356.888 94.812,356.607 94.472,356.400 94.600 C 356.193 94.728,355.742 94.240,355.398 93.516 C 354.130 90.853,353.543 90.000,352.978 90.000 C 352.660 90.000,352.400 89.640,352.400 89.200 C 352.400 88.667,352.133 88.400,351.600 88.400 C 351.021 88.400,350.800 88.133,350.800 87.433 C 350.800 86.052,350.402 85.200,349.757 85.200 C 349.451 85.200,349.200 84.840,349.200 84.400 C 349.200 83.883,348.933 83.600,348.447 83.600 C 348.030 83.600,347.600 83.243,347.484 82.800 C 347.369 82.360,346.988 82.000,346.637 82.000 C 346.287 82.000,346.000 81.683,346.000 81.296 C 346.000 80.909,345.640 80.368,345.200 80.093 C 344.760 79.818,344.400 79.218,344.400 78.759 C 344.400 78.262,344.077 77.841,343.600 77.716 C 343.157 77.600,342.800 77.170,342.800 76.753 C 342.800 76.339,342.551 76.000,342.247 76.000 C 341.942 76.000,341.599 75.640,341.484 75.200 C 341.369 74.760,341.009 74.400,340.684 74.400 C 340.359 74.400,339.999 74.040,339.884 73.600 C 339.769 73.160,339.388 72.800,339.037 72.800 C 338.667 72.800,338.400 72.465,338.400 72.000 C 338.400 71.467,338.133 71.200,337.600 71.200 C 337.067 71.200,336.800 70.933,336.800 70.400 C 336.800 69.867,336.533 69.600,336.000 69.600 C 335.467 69.600,335.200 69.333,335.200 68.800 C 335.200 68.283,334.933 68.000,334.447 68.000 C 334.030 68.000,333.600 67.643,333.484 67.200 C 333.369 66.760,333.009 66.400,332.684 66.400 C 332.359 66.400,331.999 66.040,331.884 65.600 C 331.769 65.160,331.388 64.800,331.037 64.800 C 330.667 64.800,330.400 64.465,330.400 64.000 C 330.400 63.467,330.133 63.200,329.600 63.200 C 329.058 63.200,328.800 62.933,328.800 62.373 C 328.800 61.739,328.620 61.603,328.030 61.790 C 327.441 61.977,327.230 61.819,327.130 61.117 C 327.047 60.532,326.747 60.220,326.300 60.256 C 325.876 60.289,325.600 60.032,325.600 59.602 C 325.600 59.212,325.240 58.799,324.800 58.684 C 324.360 58.569,324.000 58.188,324.000 57.837 C 324.000 57.467,323.665 57.200,323.200 57.200 C 322.667 57.200,322.400 56.933,322.400 56.400 C 322.400 55.814,322.133 55.600,321.403 55.600 C 320.840 55.600,320.190 55.252,319.907 54.800 C 319.632 54.360,319.091 54.000,318.704 54.000 C 318.267 54.000,318.000 53.697,318.000 53.200 C 318.000 52.667,317.733 52.400,317.200 52.400 C 316.667 52.400,316.400 52.133,316.400 51.600 C 316.400 51.067,316.133 50.800,315.600 50.800 C 315.160 50.800,314.800 50.549,314.800 50.243 C 314.800 49.598,313.948 49.200,312.567 49.200 C 311.867 49.200,311.600 48.979,311.600 48.400 C 311.600 47.867,311.333 47.600,310.800 47.600 C 310.267 47.600,310.000 47.333,310.000 46.800 C 310.000 46.346,309.733 46.000,309.384 46.000 C 309.045 46.000,308.252 45.619,307.622 45.153 C 306.992 44.687,306.279 44.428,306.038 44.576 C 305.778 44.737,305.600 44.530,305.600 44.066 C 305.600 43.287,304.612 42.621,304.009 42.994 C 303.834 43.102,303.597 42.833,303.483 42.396 C 303.332 41.818,302.936 41.600,302.037 41.600 C 301.067 41.600,300.800 41.428,300.800 40.800 C 300.800 40.178,300.533 40.000,299.603 40.000 C 298.840 40.000,298.226 39.710,297.907 39.200 C 297.632 38.760,297.112 38.400,296.750 38.400 C 296.389 38.400,295.999 38.040,295.884 37.600 C 295.724 36.987,295.338 36.800,294.237 36.800 C 293.067 36.800,292.800 36.652,292.800 36.000 C 292.800 35.358,292.533 35.200,291.447 35.200 C 290.430 35.200,290.041 35.001,289.884 34.400 C 289.724 33.787,289.338 33.600,288.237 33.600 C 287.067 33.600,286.800 33.452,286.800 32.800 C 286.800 32.133,286.533 32.000,285.200 32.000 C 283.867 32.000,283.600 31.867,283.600 31.200 C 283.600 30.533,283.333 30.400,282.000 30.400 C 280.695 30.400,280.400 30.260,280.400 29.641 C 280.400 29.013,280.126 28.892,278.815 28.941 C 277.510 28.990,277.209 28.858,277.115 28.200 C 277.026 27.579,276.687 27.395,275.602 27.379 C 274.614 27.365,274.165 27.159,274.072 26.679 C 273.944 26.012,273.496 25.897,270.900 25.865 C 269.918 25.853,269.600 25.672,269.600 25.125 C 269.600 24.550,269.279 24.400,268.047 24.400 C 266.830 24.400,266.448 24.227,266.284 23.600 C 266.106 22.920,265.738 22.800,263.837 22.800 C 261.867 22.800,261.600 22.705,261.600 22.000 C 261.600 21.289,261.333 21.200,259.200 21.200 C 257.067 21.200,256.800 21.111,256.800 20.400 C 256.800 19.960,256.665 19.621,256.500 19.647 C 254.147 20.019,250.800 19.521,250.800 18.800 C 250.800 18.097,250.533 18.000,248.600 18.000 C 246.933 18.000,246.206 17.806,245.600 17.200 C 244.934 16.534,244.267 16.400,241.627 16.400 C 238.877 16.400,238.422 16.300,238.216 15.651 C 238.008 14.994,237.505 14.893,234.169 14.830 C 230.985 14.771,230.231 14.631,229.580 13.980 C 228.866 13.266,228.206 13.200,221.800 13.200 C 215.844 13.200,214.800 13.110,214.800 12.600 C 214.800 12.270,214.665 11.977,214.500 11.948 C 213.752 11.819,186.019 11.794,185.634 11.922 M218.000 40.146 C 218.990 40.446,221.509 40.822,223.597 40.983 C 225.685 41.144,228.115 41.509,228.997 41.794 C 229.879 42.080,231.647 42.411,232.928 42.531 C 234.208 42.650,235.502 42.953,235.804 43.203 C 236.106 43.454,237.669 43.841,239.277 44.064 C 240.884 44.287,242.392 44.628,242.627 44.823 C 242.862 45.018,244.032 45.384,245.227 45.637 C 246.422 45.890,247.886 46.345,248.480 46.649 C 249.074 46.952,249.884 47.206,250.280 47.214 C 250.676 47.221,251.720 47.575,252.600 48.000 C 253.480 48.425,254.516 48.779,254.901 48.786 C 255.287 48.794,256.275 49.160,257.096 49.600 C 257.916 50.040,258.816 50.400,259.096 50.400 C 259.375 50.400,260.275 50.760,261.096 51.200 C 261.916 51.640,262.884 52.000,263.245 52.000 C 263.606 52.000,264.126 52.270,264.400 52.600 C 264.674 52.930,265.101 53.202,265.349 53.204 C 265.597 53.206,266.700 53.650,267.800 54.191 C 268.900 54.732,270.042 55.181,270.337 55.187 C 270.632 55.194,271.331 55.560,271.891 56.000 C 272.450 56.440,273.249 56.800,273.666 56.800 C 274.084 56.800,274.527 57.065,274.651 57.389 C 274.776 57.713,275.477 58.091,276.211 58.228 C 276.944 58.366,277.641 58.731,277.760 59.039 C 277.878 59.348,278.238 59.600,278.559 59.600 C 278.880 59.600,279.381 59.837,279.671 60.126 C 279.962 60.415,281.428 61.360,282.929 62.226 C 286.690 64.395,286.657 64.374,289.800 66.492 C 295.791 70.529,299.746 73.533,304.592 77.729 C 307.724 80.440,319.589 92.322,322.400 95.561 C 323.610 96.955,324.915 98.434,325.300 98.848 C 325.685 99.262,326.000 99.711,326.000 99.847 C 326.000 99.983,326.495 100.675,327.100 101.384 C 327.705 102.093,328.470 103.084,328.800 103.586 C 329.130 104.088,329.669 104.777,329.997 105.118 C 330.326 105.459,330.776 106.051,330.997 106.434 C 331.219 106.816,331.985 107.964,332.700 108.985 C 333.415 110.005,334.000 110.983,334.000 111.158 C 334.000 111.333,334.360 111.802,334.800 112.200 C 335.240 112.598,335.600 113.068,335.600 113.244 C 335.600 113.557,337.210 116.146,337.972 117.059 C 338.183 117.312,338.635 118.122,338.977 118.859 C 339.319 119.597,339.955 120.740,340.390 121.400 C 340.826 122.060,341.476 123.275,341.835 124.100 C 342.193 124.925,342.619 125.600,342.780 125.600 C 342.941 125.600,343.289 126.320,343.553 127.200 C 343.816 128.080,344.185 128.800,344.373 128.800 C 344.560 128.800,344.826 129.251,344.965 129.802 C 345.195 130.719,346.891 134.610,348.801 138.600 C 349.222 139.480,349.691 140.740,349.843 141.400 C 349.995 142.060,350.363 142.955,350.660 143.389 C 350.957 143.823,351.200 144.523,351.200 144.945 C 351.200 145.367,351.533 146.452,351.940 147.356 C 353.068 149.859,354.399 154.079,354.414 155.200 C 354.421 155.750,354.775 156.920,355.200 157.800 C 355.625 158.680,355.979 159.995,355.986 160.722 C 355.994 161.449,356.337 162.799,356.748 163.722 C 357.160 164.645,357.617 166.641,357.765 168.158 C 357.913 169.675,358.208 171.241,358.420 171.637 C 358.632 172.034,358.911 174.033,359.039 176.079 C 359.167 178.126,359.570 180.700,359.936 181.800 C 360.948 184.849,360.906 215.746,359.886 218.350 C 359.509 219.313,359.192 221.203,359.183 222.550 C 359.173 223.898,358.980 225.810,358.753 226.800 C 358.526 227.790,358.090 230.119,357.784 231.975 C 357.478 233.831,356.951 236.039,356.614 236.883 C 356.276 237.726,355.994 238.998,355.986 239.708 C 355.979 240.419,355.625 241.720,355.200 242.600 C 354.775 243.480,354.421 244.547,354.414 244.972 C 354.400 245.768,353.285 249.424,351.938 253.094 C 349.803 258.912,349.414 259.923,348.735 261.426 C 348.331 262.321,348.000 263.244,348.000 263.477 C 348.000 263.711,347.742 264.117,347.426 264.379 C 347.110 264.641,346.739 265.365,346.603 265.989 C 346.466 266.612,346.004 267.808,345.577 268.646 C 345.150 269.484,344.800 270.401,344.800 270.685 C 344.800 270.968,344.634 271.200,344.431 271.200 C 344.228 271.200,343.859 271.816,343.611 272.568 C 343.362 273.320,342.916 274.138,342.619 274.384 C 342.322 274.631,341.959 275.307,341.814 275.887 C 341.669 276.466,340.951 277.854,340.220 278.970 C 339.489 280.087,338.768 281.405,338.618 281.900 C 338.469 282.395,338.178 282.800,337.973 282.800 C 337.768 282.800,337.600 283.010,337.600 283.266 C 337.600 283.801,332.872 290.998,330.915 293.441 C 330.192 294.344,329.600 295.210,329.600 295.365 C 329.600 295.695,323.385 303.513,322.418 304.400 C 322.058 304.730,321.117 305.810,320.327 306.800 C 318.532 309.048,311.743 315.985,308.759 318.621 C 303.389 323.363,302.014 324.532,298.853 327.046 C 295.215 329.939,282.171 338.800,281.550 338.800 C 281.340 338.800,280.680 339.122,280.084 339.516 C 278.228 340.742,277.450 341.175,275.900 341.841 C 275.075 342.196,274.400 342.633,274.400 342.812 C 274.400 342.990,273.872 343.252,273.228 343.394 C 272.583 343.536,271.841 343.910,271.579 344.226 C 271.317 344.542,270.911 344.800,270.677 344.800 C 270.444 344.800,269.521 345.144,268.626 345.564 C 267.732 345.984,265.920 346.804,264.600 347.385 C 263.280 347.967,261.660 348.689,261.000 348.991 C 260.340 349.293,259.128 349.746,258.306 349.999 C 257.484 350.252,256.708 350.625,256.582 350.829 C 256.456 351.033,255.956 351.200,255.470 351.200 C 254.985 351.200,253.961 351.534,253.194 351.943 C 252.427 352.352,250.949 352.812,249.909 352.966 C 248.869 353.120,247.921 353.404,247.802 353.596 C 247.683 353.789,246.554 354.160,245.293 354.421 C 244.032 354.683,242.645 355.145,242.211 355.448 C 241.777 355.752,240.746 356.000,239.919 356.000 C 239.092 356.000,237.726 356.276,236.883 356.614 C 236.039 356.951,233.831 357.478,231.975 357.784 C 230.119 358.090,227.790 358.526,226.800 358.753 C 225.810 358.980,223.898 359.173,222.550 359.183 C 221.203 359.192,219.313 359.505,218.350 359.877 C 215.675 360.912,184.742 360.925,181.886 359.892 C 180.833 359.511,178.943 359.189,177.686 359.176 C 176.429 359.163,174.500 358.973,173.400 358.753 C 172.300 358.534,169.960 358.109,168.200 357.808 C 166.440 357.508,164.331 356.978,163.513 356.631 C 162.695 356.284,161.435 355.994,160.713 355.986 C 159.991 355.979,158.680 355.625,157.800 355.200 C 156.920 354.775,155.750 354.421,155.200 354.414 C 154.079 354.399,149.859 353.068,147.356 351.940 C 146.452 351.533,145.338 351.200,144.880 351.200 C 144.422 351.200,143.939 351.025,143.807 350.811 C 143.674 350.597,142.809 350.224,141.883 349.982 C 140.957 349.741,139.468 349.196,138.574 348.771 C 137.679 348.347,136.793 348.000,136.605 348.000 C 136.417 348.000,135.979 347.764,135.631 347.474 C 135.284 347.185,133.650 346.426,132.000 345.787 C 130.350 345.147,128.904 344.491,128.786 344.328 C 128.668 344.164,127.948 343.751,127.186 343.410 C 126.424 343.068,125.530 342.611,125.200 342.394 C 124.870 342.177,124.150 341.817,123.600 341.594 C 123.050 341.371,122.060 340.830,121.400 340.393 C 120.740 339.956,119.660 339.322,119.000 338.984 C 118.340 338.646,116.990 337.840,116.000 337.193 C 115.010 336.546,113.833 335.851,113.384 335.650 C 112.935 335.448,112.327 334.995,112.035 334.642 C 111.742 334.289,111.318 334.000,111.092 334.000 C 110.867 334.000,109.944 333.411,109.041 332.692 C 108.139 331.972,106.590 330.847,105.600 330.192 C 103.531 328.822,103.006 328.436,102.060 327.588 C 101.684 327.252,100.500 326.352,99.428 325.588 C 94.677 322.203,76.658 304.262,75.077 301.342 C 74.856 300.934,74.118 299.945,73.438 299.144 C 71.014 296.291,70.537 295.663,68.890 293.147 C 68.510 292.568,67.010 290.318,65.555 288.147 C 64.100 285.976,62.397 283.300,61.769 282.200 C 61.141 281.100,60.396 279.962,60.114 279.671 C 59.831 279.381,59.600 278.880,59.600 278.559 C 59.600 278.238,59.348 277.878,59.039 277.760 C 58.731 277.641,58.366 276.945,58.229 276.212 C 58.091 275.480,57.725 274.670,57.415 274.413 C 57.105 274.155,56.738 273.430,56.600 272.800 C 56.462 272.170,56.090 271.441,55.774 271.179 C 55.458 270.917,55.200 270.533,55.200 270.326 C 55.200 270.120,54.730 268.927,54.155 267.675 C 53.581 266.424,52.757 264.590,52.324 263.600 C 51.892 262.610,51.282 261.322,50.969 260.738 C 50.656 260.154,50.400 259.432,50.400 259.132 C 50.400 258.833,50.040 257.916,49.600 257.096 C 49.160 256.275,48.794 255.287,48.786 254.901 C 48.779 254.516,48.425 253.480,48.000 252.600 C 47.575 251.720,47.221 250.676,47.214 250.280 C 47.206 249.884,46.952 249.074,46.649 248.480 C 46.345 247.886,45.890 246.422,45.637 245.227 C 45.384 244.032,45.018 242.862,44.823 242.627 C 44.628 242.392,44.287 240.884,44.064 239.277 C 43.841 237.669,43.454 236.106,43.203 235.804 C 42.953 235.502,42.650 234.208,42.531 232.928 C 42.411 231.647,42.081 229.880,41.798 229.000 C 41.515 228.120,41.161 225.780,41.012 223.800 C 40.863 221.820,40.457 219.210,40.110 218.000 C 39.160 214.696,39.149 185.225,40.096 182.000 C 40.451 180.790,40.864 178.180,41.013 176.200 C 41.162 174.220,41.434 172.317,41.618 171.972 C 41.801 171.627,42.162 169.737,42.420 167.772 C 42.678 165.807,43.056 163.993,43.260 163.740 C 43.465 163.487,43.815 162.143,44.038 160.754 C 44.262 159.364,44.617 158.021,44.826 157.769 C 45.036 157.516,45.394 156.300,45.622 155.065 C 45.850 153.831,46.297 152.321,46.616 151.710 C 46.934 151.100,47.202 150.240,47.211 149.800 C 47.220 149.360,47.575 148.280,48.000 147.400 C 48.425 146.520,48.779 145.523,48.786 145.185 C 48.794 144.846,49.160 143.863,49.600 143.000 C 50.040 142.137,50.400 141.041,50.400 140.564 C 50.400 140.088,50.658 139.483,50.974 139.221 C 51.290 138.959,51.674 138.172,51.826 137.472 C 51.979 136.773,52.441 135.771,52.852 135.246 C 53.263 134.721,53.600 134.127,53.600 133.924 C 53.600 133.486,55.063 130.054,55.615 129.200 C 55.828 128.870,56.181 128.150,56.401 127.600 C 56.620 127.050,56.976 126.330,57.193 126.000 C 57.409 125.670,58.075 124.410,58.672 123.200 C 59.270 121.990,59.988 120.722,60.268 120.381 C 60.548 120.041,61.245 118.871,61.818 117.781 C 62.942 115.641,64.696 112.921,65.500 112.071 C 65.775 111.781,66.000 111.308,66.000 111.020 C 66.000 110.733,66.255 110.286,66.566 110.028 C 66.878 109.769,68.003 108.266,69.066 106.688 C 70.130 105.109,71.270 103.512,71.600 103.138 C 72.316 102.325,72.574 101.998,74.539 99.400 C 79.410 92.962,92.962 79.410,99.400 74.539 C 101.882 72.661,102.269 72.354,103.119 71.582 C 103.494 71.242,105.095 70.102,106.679 69.048 C 108.262 67.995,109.769 66.878,110.028 66.566 C 110.286 66.255,110.733 66.000,111.020 66.000 C 111.308 66.000,111.781 65.771,112.071 65.490 C 112.362 65.210,113.500 64.405,114.600 63.701 C 115.700 62.997,116.810 62.244,117.066 62.027 C 117.322 61.810,117.990 61.517,118.549 61.377 C 119.109 61.236,119.771 60.876,120.019 60.577 C 120.268 60.277,121.580 59.476,122.936 58.798 C 124.291 58.119,125.670 57.392,126.000 57.181 C 126.330 56.971,127.050 56.620,127.600 56.401 C 128.150 56.181,128.870 55.833,129.200 55.626 C 129.530 55.419,130.700 54.854,131.800 54.372 C 132.900 53.889,134.703 53.068,135.806 52.547 C 136.909 52.026,138.012 51.600,138.257 51.600 C 138.502 51.600,138.907 51.352,139.159 51.050 C 139.410 50.747,140.355 50.382,141.258 50.237 C 142.162 50.093,143.279 49.710,143.740 49.387 C 144.201 49.064,144.899 48.800,145.290 48.800 C 145.682 48.800,146.675 48.440,147.496 48.000 C 148.316 47.560,149.351 47.199,149.794 47.198 C 150.237 47.196,151.140 46.909,151.800 46.558 C 152.460 46.208,153.900 45.775,155.000 45.597 C 156.100 45.418,157.810 44.998,158.800 44.662 C 161.300 43.816,163.784 43.200,166.600 42.729 C 167.920 42.508,169.900 42.080,171.000 41.779 C 172.100 41.479,174.530 41.119,176.400 40.981 C 178.270 40.842,180.430 40.539,181.200 40.307 C 185.016 39.157,214.312 39.029,218.000 40.146 M85.745 256.711 C 85.892 256.949,85.832 257.256,85.612 257.393 C 85.103 257.707,85.359 267.410,85.913 268.800 C 86.421 270.074,89.519 273.599,90.134 273.602 C 90.390 273.604,91.140 273.919,91.800 274.302 C 93.382 275.222,176.305 275.621,176.560 274.711 C 177.189 272.463,178.039 266.696,177.932 265.400 L 177.800 263.800 136.000 263.583 C 91.184 263.350,91.947 263.387,89.453 261.322 C 88.258 260.333,86.400 257.828,86.400 257.206 C 86.400 257.009,86.192 256.719,85.938 256.562 C 85.663 256.391,85.585 256.451,85.745 256.711 M313.076 258.422 C 310.008 263.621,312.748 263.333,264.000 263.585 L 222.200 263.800 222.063 265.200 C 221.947 266.386,222.253 268.412,223.437 274.309 L 223.620 275.218 265.310 275.109 C 304.116 275.008,307.083 274.952,308.200 274.302 C 308.860 273.919,309.580 273.598,309.800 273.590 C 312.265 273.497,314.382 269.122,314.646 263.572 C 314.952 257.144,314.570 255.890,313.076 258.422 M136.654 312.910 C 134.178 316.675,135.990 322.055,140.491 324.303 L 142.288 325.200 200.111 325.200 L 257.934 325.200 259.985 324.170 C 264.146 322.080,265.803 316.650,263.371 313.071 L 262.342 311.557 260.177 312.778 L 258.012 314.000 199.977 314.000 L 141.942 314.000 140.071 312.919 C 139.042 312.325,138.102 311.699,137.983 311.529 C 137.863 311.360,137.265 311.981,136.654 312.910 " stroke="none" fill="#3c2c74" fill-rule="evenodd"></path><path id="path4" d="M95.390 123.378 L 94.339 124.755 94.384 183.859 C 94.409 216.366,94.513 243.046,94.615 243.148 C 94.717 243.250,94.800 218.001,94.800 187.040 C 94.800 127.330,94.721 129.585,96.851 128.842 C 99.303 127.987,301.879 128.241,303.600 129.101 L 305.000 129.800 305.200 187.000 L 305.400 244.200 305.600 184.800 C 305.713 151.232,305.648 125.052,305.450 124.600 C 305.258 124.160,304.731 123.395,304.280 122.900 L 303.461 122.000 199.951 122.000 L 96.441 122.000 95.390 123.378 M117.075 140.417 C 114.088 140.919,112.108 142.518,110.303 145.885 C 109.136 148.063,109.252 168.538,110.445 170.916 C 112.633 175.276,115.167 176.400,122.810 176.400 C 130.463 176.400,132.891 175.261,135.030 170.666 C 136.565 167.369,136.523 149.057,134.973 145.780 C 132.598 140.760,126.290 138.870,117.075 140.417 M184.072 140.420 C 181.567 140.869,179.689 142.185,177.892 144.753 L 176.600 146.600 176.600 158.200 C 176.600 170.941,176.610 170.999,179.399 173.752 C 183.362 177.663,196.604 177.525,200.255 173.534 C 202.868 170.678,203.000 169.949,203.000 158.400 C 203.000 146.500,202.866 145.838,199.814 142.696 C 197.638 140.455,190.023 139.354,184.072 140.420 M222.200 140.172 C 221.980 140.263,220.960 140.450,219.934 140.588 C 217.582 140.904,214.765 143.260,213.606 145.880 C 212.393 148.621,212.378 167.744,213.586 170.476 C 215.628 175.092,218.370 176.400,226.000 176.400 C 233.644 176.400,236.158 175.279,238.200 170.962 C 239.681 167.832,239.760 148.609,238.304 145.693 C 237.261 143.605,234.473 141.001,232.896 140.642 C 231.535 140.332,222.746 139.946,222.200 140.172 M256.275 140.390 C 249.706 141.586,248.600 144.152,248.600 158.200 C 248.600 174.457,250.004 176.400,261.754 176.400 C 269.336 176.400,271.419 175.490,273.932 171.077 C 275.296 168.683,275.274 147.653,273.905 145.323 C 271.219 140.749,264.550 138.884,256.275 140.390 M146.344 141.165 L 145.400 141.929 145.400 158.132 L 145.400 174.336 146.370 175.368 C 147.655 176.736,149.160 176.703,150.525 175.278 L 151.600 174.156 151.600 158.260 L 151.600 142.364 150.618 141.382 C 149.426 140.190,147.659 140.100,146.344 141.165 M161.944 141.165 L 161.000 141.929 161.000 158.132 L 161.000 174.336 161.970 175.368 C 163.255 176.736,164.760 176.703,166.125 175.278 L 167.200 174.156 167.200 158.260 L 167.200 142.364 166.218 141.382 C 165.026 140.190,163.259 140.100,161.944 141.165 M286.000 140.678 C 284.437 141.236,284.400 141.642,284.400 158.401 L 284.400 174.650 285.584 175.525 C 287.092 176.640,287.907 176.611,289.400 175.391 L 290.600 174.410 290.600 158.170 L 290.600 141.929 289.656 141.165 C 288.746 140.428,287.254 140.229,286.000 140.678 M127.569 146.849 C 129.460 147.508,129.600 148.315,129.600 158.568 L 129.600 167.883 128.526 169.042 C 126.891 170.806,118.659 170.841,116.909 169.091 L 115.800 167.981 115.800 158.252 C 115.800 147.911,115.861 147.561,117.786 146.781 C 119.007 146.286,126.095 146.335,127.569 146.849 M194.555 146.783 C 196.647 147.578,196.866 148.790,196.727 158.824 L 196.600 167.983 195.491 169.092 C 193.569 171.013,185.952 170.959,183.849 169.010 L 182.800 168.038 182.828 158.519 C 182.858 148.302,182.928 147.797,184.420 146.971 C 185.577 146.330,193.002 146.193,194.555 146.783 M231.500 147.196 L 232.800 147.988 232.800 158.124 L 232.800 168.261 231.768 169.230 C 230.795 170.144,230.461 170.200,226.006 170.200 L 221.277 170.200 220.139 169.000 L 219.000 167.800 219.000 158.561 C 219.000 146.299,218.888 146.488,226.200 146.433 C 229.519 146.408,230.421 146.538,231.500 147.196 M267.836 147.722 C 268.795 148.839,268.800 148.889,268.800 158.216 L 268.800 167.587 267.633 168.894 C 265.720 171.034,258.170 171.092,255.896 168.984 L 254.800 167.968 254.805 158.684 C 254.813 145.911,254.569 146.306,262.336 146.491 C 266.750 146.597,266.897 146.630,267.836 147.722 M135.400 193.944 C 128.887 195.158,127.396 199.078,127.682 214.237 C 127.877 224.559,128.243 225.806,131.835 228.400 L 133.774 229.800 140.787 229.800 C 148.421 229.800,148.516 229.778,151.233 227.323 C 153.721 225.075,154.000 223.529,154.000 212.000 C 154.000 199.031,153.485 197.418,148.456 194.644 C 146.972 193.825,138.481 193.370,135.400 193.944 M186.800 193.967 C 179.979 195.568,179.083 197.882,179.270 213.400 L 179.400 224.200 180.600 225.854 C 183.139 229.355,184.447 229.800,192.200 229.800 C 200.006 229.800,201.187 229.407,203.713 225.972 L 205.000 224.222 205.000 211.977 L 205.000 199.732 203.847 198.067 C 201.267 194.344,193.328 192.435,186.800 193.967 M269.600 193.930 C 263.038 195.196,261.598 198.509,261.604 212.331 C 261.612 228.092,262.908 229.800,274.865 229.800 L 281.930 229.800 283.616 228.600 C 284.543 227.940,285.864 226.617,286.551 225.661 L 287.800 223.921 287.943 214.722 C 288.179 199.628,287.765 197.959,283.078 195.084 C 281.063 193.848,273.417 193.194,269.600 193.930 M112.909 195.083 C 111.907 196.613,111.811 227.983,112.805 228.977 C 114.071 230.242,115.860 230.202,117.184 228.878 L 118.400 227.662 118.400 212.015 C 118.400 196.547,118.390 196.354,117.525 195.184 C 116.310 193.541,113.953 193.489,112.909 195.083 M164.210 195.180 C 163.504 196.545,163.286 226.721,163.969 228.518 C 164.899 230.965,168.653 230.069,169.495 227.200 C 170.542 223.629,170.021 196.909,168.873 195.300 C 167.567 193.470,165.127 193.407,164.210 195.180 M215.627 195.162 C 214.536 196.694,214.321 226.314,215.386 228.373 C 216.399 230.332,219.704 230.430,220.429 228.523 C 221.128 226.686,220.897 195.917,220.177 194.889 C 219.202 193.496,216.707 193.645,215.627 195.162 M231.227 195.162 C 230.130 196.702,229.922 226.315,230.993 228.387 C 232.384 231.076,235.702 230.299,236.396 227.123 C 237.211 223.393,236.786 196.447,235.891 195.082 C 234.848 193.491,232.387 193.533,231.227 195.162 M246.827 195.162 C 245.730 196.702,245.522 226.315,246.593 228.387 C 247.984 231.076,251.302 230.299,251.996 227.123 C 252.811 223.393,252.386 196.447,251.491 195.082 C 250.448 193.491,247.987 193.533,246.827 195.162 M146.374 200.774 C 147.675 202.075,147.996 204.294,147.996 212.000 C 147.996 223.588,147.987 223.602,140.871 223.594 C 133.682 223.585,134.000 224.121,134.000 212.034 C 134.000 202.853,134.248 201.191,135.721 200.479 C 137.408 199.664,145.488 199.888,146.374 200.774 M198.014 200.800 C 199.433 203.022,199.808 219.381,198.499 222.000 L 197.800 223.400 192.591 223.511 C 185.199 223.668,185.826 224.692,185.681 212.234 L 185.562 202.002 186.595 200.969 C 187.853 199.711,197.230 199.573,198.014 200.800 M280.456 200.765 L 281.400 201.529 281.400 211.997 C 281.400 224.673,282.018 223.600,274.718 223.600 L 269.588 223.600 268.796 222.300 C 266.840 219.093,267.819 200.843,269.978 200.261 C 272.139 199.677,279.553 200.034,280.456 200.765 " stroke="none" fill="#146fa4" fill-rule="evenodd"></path></g></svg>